<svg width="1174" height="199" viewBox="0 0 1174 199" fill="none" xmlns="http://www.w3.org/2000/svg">
<path d="M54.8882 157.688C45.0415 157.688 35.8982 155.297 27.4582 150.514C19.1588 145.591 12.5475 138.979 7.62417 130.68C2.8415 122.24 0.450171 113.097 0.450171 103.25C0.450171 93.4033 2.8415 84.3303 7.62417 76.031C12.5475 67.591 19.1588 60.9797 27.4582 56.197C35.8982 51.2737 45.0415 48.812 54.8882 48.812C67.2668 48.812 78.2388 52.5397 87.8042 59.995C97.5102 67.3097 103.981 76.7343 107.216 88.269H78.0982C75.7068 84.3303 72.4715 81.2357 68.3922 78.985C64.4535 76.7343 60.0225 75.609 55.0992 75.609C47.3625 75.609 40.8918 78.2817 35.6872 83.627C30.4825 88.8317 27.8802 95.3727 27.8802 103.25C27.8802 111.127 30.4825 117.739 35.6872 123.084C40.8918 128.289 47.3625 130.891 55.0992 130.891C59.7412 130.891 63.9612 129.906 67.7592 127.937C71.5572 125.827 74.7222 122.943 77.2542 119.286H107.005C103.629 130.539 97.1585 139.753 87.5932 146.927C78.0278 154.101 67.1262 157.688 54.8882 157.688ZM173.188 48.812C183.035 48.812 192.108 51.2737 200.407 56.197C208.847 60.9797 215.459 67.591 220.241 76.031C225.165 84.3303 227.626 93.4033 227.626 103.25C227.626 113.097 225.165 122.24 220.241 130.68C215.459 138.979 208.847 145.591 200.407 150.514C192.108 155.297 183.035 157.688 173.188 157.688C163.342 157.688 154.198 155.297 145.758 150.514C137.459 145.591 130.848 138.979 125.924 130.68C121.142 122.24 118.75 113.097 118.75 103.25C118.75 93.4033 121.142 84.3303 125.924 76.031C130.848 67.591 137.459 60.9797 145.758 56.197C154.198 51.2737 163.342 48.812 173.188 48.812ZM173.399 75.609C165.663 75.609 159.192 78.2817 153.987 83.627C148.783 88.8317 146.18 95.3727 146.18 103.25C146.18 111.127 148.783 117.739 153.987 123.084C159.192 128.289 165.663 130.891 173.399 130.891C181.136 130.891 187.536 128.289 192.6 123.084C197.664 117.739 200.196 111.127 200.196 103.25C200.196 95.3727 197.664 88.8317 192.6 83.627C187.536 78.2817 181.136 75.609 173.399 75.609ZM347.982 103.25C347.982 113.097 345.52 122.24 340.597 130.68C335.814 138.979 329.273 145.591 320.974 150.514C312.675 155.297 303.602 157.688 293.755 157.688C283.908 157.688 274.835 155.297 266.536 150.514C258.237 145.591 251.625 138.979 246.702 130.68C241.779 122.24 239.317 113.097 239.317 103.25C239.317 93.4033 241.779 84.3303 246.702 76.031C251.625 67.591 258.237 60.9797 266.536 56.197C274.835 51.2737 283.908 48.812 293.755 48.812C304.024 48.812 312.886 51.4847 320.341 56.83V8.29999H347.982V103.25ZM293.544 75.609C285.807 75.609 279.407 78.2817 274.343 83.627C269.279 88.8317 266.747 95.3727 266.747 103.25C266.747 111.127 269.279 117.739 274.343 123.084C279.407 128.289 285.807 130.891 293.544 130.891C301.281 130.891 307.751 128.289 312.956 123.084C318.161 117.739 320.763 111.127 320.763 103.25C320.763 95.3727 318.161 88.8317 312.956 83.627C307.751 78.2817 301.281 75.609 293.544 75.609ZM382.342 39.317C377.7 39.317 373.761 37.7697 370.526 34.675C367.431 31.4397 365.884 27.501 365.884 22.859C365.884 18.3577 367.431 14.5597 370.526 11.465C373.761 8.22966 377.7 6.612 382.342 6.612C386.843 6.612 390.641 8.22966 393.736 11.465C396.971 14.5597 398.589 18.3577 398.589 22.859C398.589 27.501 396.971 31.4397 393.736 34.675C390.641 37.7697 386.843 39.317 382.342 39.317ZM368.627 50.5H396.057V156H368.627V50.5ZM507.172 100.507C507.172 83.3457 502.952 70.4747 494.512 61.894C486.072 53.1727 474.818 48.812 460.752 48.812C446.685 48.812 435.432 53.1727 426.992 61.894C418.552 70.4747 414.332 83.3457 414.332 100.507V156H441.762V100.507C441.762 91.9263 443.239 85.6667 446.193 81.728C449.287 77.6487 454.14 75.609 460.752 75.609C467.363 75.609 472.146 77.6487 475.1 81.728C478.194 85.6667 479.742 91.9263 479.742 100.507V156H507.172V100.507ZM574.27 198.2C563.298 198.2 553.31 195.176 544.308 189.127C535.305 183.219 528.694 175.342 524.474 165.495H557.812C560.484 167.605 563.087 169.082 565.619 169.926C568.291 170.911 571.175 171.403 574.27 171.403C581.584 171.403 587.774 169.574 592.838 165.917C598.042 162.26 600.645 157.266 600.645 150.936V150.725C592.486 155.367 583.694 157.688 574.27 157.688C564.423 157.688 555.28 155.297 546.84 150.514C538.54 145.591 531.929 138.979 527.006 130.68C522.223 122.24 519.832 113.097 519.832 103.25C519.832 93.4033 522.223 84.3303 527.006 76.031C531.929 67.591 538.54 60.9797 546.84 56.197C555.28 51.2737 564.423 48.812 574.27 48.812C584.116 48.812 593.189 51.2737 601.489 56.197C609.929 60.9797 616.54 67.591 621.323 76.031C626.246 84.3303 628.708 93.4033 628.708 103.25V143.762C628.708 153.609 626.246 162.682 621.323 170.981C616.54 179.421 609.929 186.032 601.489 190.815C593.189 195.738 584.116 198.2 574.27 198.2ZM574.481 130.891C582.217 130.891 588.618 128.289 593.682 123.084C598.746 117.739 601.278 111.127 601.278 103.25C601.278 95.3727 598.746 88.8317 593.682 83.627C588.618 78.2817 582.217 75.609 574.481 75.609C566.744 75.609 560.273 78.2817 555.069 83.627C549.864 88.8317 547.262 95.3727 547.262 103.25C547.262 111.127 549.864 117.739 555.069 123.084C560.273 128.289 566.744 130.891 574.481 130.891Z" fill="#192E3F"/>
<path d="M755.029 157.688C745.182 157.688 736.109 155.297 727.81 150.514C719.511 145.591 712.899 138.979 707.976 130.68C703.053 122.24 700.591 113.097 700.591 103.25C700.591 93.4033 703.053 84.3303 707.976 76.031C712.899 67.591 719.511 60.9797 727.81 56.197C736.109 51.2737 745.182 48.812 755.029 48.812C764.876 48.812 773.949 51.2737 782.248 56.197C790.547 60.9797 797.088 67.591 801.871 76.031C806.794 84.3303 809.256 93.4033 809.256 103.25V156H781.826V144.817C780.279 148.334 776.903 151.358 771.698 153.89C766.493 156.422 760.937 157.688 755.029 157.688ZM755.24 130.891C762.977 130.891 769.377 128.289 774.441 123.084C779.505 117.739 782.037 111.127 782.037 103.25C782.037 95.3727 779.505 88.8317 774.441 83.627C769.377 78.2817 762.977 75.609 755.24 75.609C747.503 75.609 741.033 78.2817 735.828 83.627C730.623 88.8317 728.021 95.3727 728.021 103.25C728.021 111.127 730.623 117.739 735.828 123.084C741.033 128.289 747.503 130.891 755.24 130.891ZM930.647 103.25C930.647 113.097 928.185 122.24 923.262 130.68C918.479 138.979 911.938 145.591 903.639 150.514C895.34 155.297 886.267 157.688 876.42 157.688C866.573 157.688 857.5 155.297 849.201 150.514C840.902 145.591 834.29 138.979 829.367 130.68C824.444 122.24 821.982 113.097 821.982 103.25C821.982 93.4033 824.444 84.3303 829.367 76.031C834.29 67.591 840.902 60.9797 849.201 56.197C857.5 51.2737 866.573 48.812 876.42 48.812C886.689 48.812 895.551 51.4847 903.006 56.83V8.29999H930.647V103.25ZM876.209 75.609C868.472 75.609 862.072 78.2817 857.008 83.627C851.944 88.8317 849.412 95.3727 849.412 103.25C849.412 111.127 851.944 117.739 857.008 123.084C862.072 128.289 868.472 130.891 876.209 130.891C883.946 130.891 890.416 128.289 895.621 123.084C900.826 117.739 903.428 111.127 903.428 103.25C903.428 95.3727 900.826 88.8317 895.621 83.627C890.416 78.2817 883.946 75.609 876.209 75.609ZM1052.04 103.25C1052.04 113.097 1049.58 122.24 1044.65 130.68C1039.87 138.979 1033.33 145.591 1025.03 150.514C1016.73 155.297 1007.66 157.688 997.811 157.688C987.964 157.688 978.891 155.297 970.592 150.514C962.293 145.591 955.681 138.979 950.758 130.68C945.835 122.24 943.373 113.097 943.373 103.25C943.373 93.4033 945.835 84.3303 950.758 76.031C955.681 67.591 962.293 60.9797 970.592 56.197C978.891 51.2737 987.964 48.812 997.811 48.812C1008.08 48.812 1016.94 51.4847 1024.4 56.83V8.29999H1052.04V103.25ZM997.6 75.609C989.863 75.609 983.463 78.2817 978.399 83.627C973.335 88.8317 970.803 95.3727 970.803 103.25C970.803 111.127 973.335 117.739 978.399 123.084C983.463 128.289 989.863 130.891 997.6 130.891C1005.34 130.891 1011.81 128.289 1017.01 123.084C1022.22 117.739 1024.82 111.127 1024.82 103.25C1024.82 95.3727 1022.22 88.8317 1017.01 83.627C1011.81 78.2817 1005.34 75.609 997.6 75.609ZM1119.2 157.688C1109.36 157.688 1100.28 155.297 1091.98 150.514C1083.68 145.591 1077.07 138.979 1072.15 130.68C1067.23 122.24 1064.76 113.097 1064.76 103.25C1064.76 93.4033 1067.23 84.3303 1072.15 76.031C1077.07 67.591 1083.68 60.9797 1091.98 56.197C1100.28 51.2737 1109.36 48.812 1119.2 48.812C1129.05 48.812 1138.12 51.2737 1146.42 56.197C1154.72 60.9797 1161.26 67.591 1166.04 76.031C1170.97 84.3303 1173.43 93.4033 1173.43 103.25V156H1146V144.817C1144.45 148.334 1141.08 151.358 1135.87 153.89C1130.67 156.422 1125.11 157.688 1119.2 157.688ZM1119.41 130.891C1127.15 130.891 1133.55 128.289 1138.61 123.084C1143.68 117.739 1146.21 111.127 1146.21 103.25C1146.21 95.3727 1143.68 88.8317 1138.61 83.627C1133.55 78.2817 1127.15 75.609 1119.41 75.609C1111.68 75.609 1105.21 78.2817 1100 83.627C1094.8 88.8317 1092.19 95.3727 1092.19 103.25C1092.19 111.127 1094.8 117.739 1100 123.084C1105.21 128.289 1111.68 130.891 1119.41 130.891Z" fill="#E50914"/>
<g clip-path="url(#clip0_0_1)">
<path d="M363.348 22.2645L365.41 34.6639C366.27 39.8412 375.834 41.1409 384.416 39.714C392.998 38.2871 401.627 33.9626 400.767 28.7852L398.705 16.3858C398.561 15.5227 397.732 14.9054 396.832 15.0551L364.689 20.3994C363.789 20.549 363.204 21.4014 363.348 22.2645Z" fill="#192E3F"/>
<path d="M363.348 22.2645L365.41 34.6639C366.27 39.8412 375.835 41.1409 384.416 39.714L380.761 17.7272L364.689 20.3994C363.789 20.549 363.204 21.4014 363.348 22.2645Z" fill="#192E3F"/>
<path d="M353.003 20.3061C353.114 20.9772 353.633 21.5149 354.281 21.6368L381.697 26.9309C381.9 26.963 382.098 26.9629 382.291 26.9309C382.484 26.8988 382.672 26.8347 382.853 26.7386L407.081 12.8581L406.581 9.85404L379.166 4.55993C378.963 4.52833 378.765 4.52834 378.572 4.56043C378.379 4.59251 378.191 4.65655 378.009 4.75225L353.782 18.6328C353.208 18.9583 352.891 19.635 353.003 20.3061Z" fill="#192E3F"/>
<path d="M353.003 20.3061C353.114 20.9772 353.633 21.5149 354.281 21.6368L381.697 26.9309C381.893 26.963 382.094 26.963 382.291 26.9309L378.572 4.56042C378.379 4.59249 378.191 4.65655 378.009 4.75225L353.782 18.6328C353.208 18.9583 352.891 19.635 353.003 20.3061Z" fill="#192E3F"/>
<path d="M378.824 16.0129C378.973 16.9075 379.797 17.4932 380.697 17.3435L404.911 13.3175L408.854 37.03L407.288 46.8801C407.136 47.7589 407.741 48.6111 408.618 48.7277C409.534 48.8713 410.36 48.274 410.479 47.4003L410.528 47.0971C410.784 47.8425 411.56 48.3375 412.363 48.2039C413.263 48.0542 413.853 47.2334 413.705 46.3388L407.86 11.1852C407.711 10.2902 406.887 9.70487 405.987 9.85455L380.166 14.1478C379.265 14.2974 378.675 15.1178 378.824 16.0129Z" fill="#192E3F"/>
</g>
<defs>
<clipPath id="clip0_0_1">
<rect width="55.61" height="55.29" fill="white" transform="matrix(-0.986458 0.164015 0.164015 0.986458 406 0)"/>
</clipPath>
</defs>
</svg>
