<svg width="2201" height="305" viewBox="0 0 2201 305" fill="none" xmlns="http://www.w3.org/2000/svg">
<path d="M451.505 240.757C436.105 240.757 421.805 237.017 408.605 229.537C395.625 221.837 385.285 211.497 377.585 198.517C370.105 185.317 366.365 171.017 366.365 155.617C366.365 140.217 370.105 126.027 377.585 113.047C385.285 99.8472 395.625 89.5072 408.605 82.0272C421.805 74.3272 436.105 70.4772 451.505 70.4772C470.865 70.4772 488.025 76.3072 502.985 87.9672C518.165 99.4072 528.285 114.147 533.345 132.187H487.805C484.065 126.027 479.005 121.187 472.625 117.667C466.465 114.147 459.535 112.387 451.835 112.387C439.735 112.387 429.615 116.567 421.475 124.927C413.335 133.067 409.265 143.297 409.265 155.617C409.265 167.937 413.335 178.277 421.475 186.637C429.615 194.777 439.735 198.847 451.835 198.847C459.095 198.847 465.695 197.307 471.635 194.227C477.575 190.927 482.525 186.417 486.485 180.697H533.015C527.735 198.297 517.615 212.707 502.655 223.927C487.695 235.147 470.645 240.757 451.505 240.757ZM636.524 70.4772C651.924 70.4772 666.114 74.3272 679.094 82.0272C692.294 89.5072 702.634 99.8472 710.114 113.047C717.814 126.027 721.664 140.217 721.664 155.617C721.664 171.017 717.814 185.317 710.114 198.517C702.634 211.497 692.294 221.837 679.094 229.537C666.114 237.017 651.924 240.757 636.524 240.757C621.124 240.757 606.824 237.017 593.624 229.537C580.644 221.837 570.304 211.497 562.604 198.517C555.124 185.317 551.384 171.017 551.384 155.617C551.384 140.217 555.124 126.027 562.604 113.047C570.304 99.8472 580.644 89.5072 593.624 82.0272C606.824 74.3272 621.124 70.4772 636.524 70.4772ZM636.854 112.387C624.754 112.387 614.634 116.567 606.494 124.927C598.354 133.067 594.284 143.297 594.284 155.617C594.284 167.937 598.354 178.277 606.494 186.637C614.634 194.777 624.754 198.847 636.854 198.847C648.954 198.847 658.964 194.777 666.884 186.637C674.804 178.277 678.764 167.937 678.764 155.617C678.764 143.297 674.804 133.067 666.884 124.927C658.964 116.567 648.954 112.387 636.854 112.387ZM909.898 155.617C909.898 171.017 906.048 185.317 898.348 198.517C890.868 211.497 880.638 221.837 867.658 229.537C854.678 237.017 840.488 240.757 825.088 240.757C809.688 240.757 795.498 237.017 782.518 229.537C769.538 221.837 759.198 211.497 751.498 198.517C743.798 185.317 739.948 171.017 739.948 155.617C739.948 140.217 743.798 126.027 751.498 113.047C759.198 99.8472 769.538 89.5072 782.518 82.0272C795.498 74.3272 809.688 70.4772 825.088 70.4772C841.148 70.4772 855.008 74.6572 866.668 83.0172V7.11717H909.898V155.617ZM824.758 112.387C812.658 112.387 802.648 116.567 794.728 124.927C786.808 133.067 782.848 143.297 782.848 155.617C782.848 167.937 786.808 178.277 794.728 186.637C802.648 194.777 812.658 198.847 824.758 198.847C836.858 198.847 846.978 194.777 855.118 186.637C863.258 178.277 867.328 167.937 867.328 155.617C867.328 143.297 863.258 133.067 855.118 124.927C846.978 116.567 836.858 112.387 824.758 112.387ZM963.637 55.6272C956.377 55.6272 950.217 53.2072 945.157 48.3672C940.317 43.3072 937.897 37.1472 937.897 29.8872C937.897 22.8472 940.317 16.9072 945.157 12.0672C950.217 7.00718 956.377 4.47719 963.637 4.47719C970.677 4.47719 976.617 7.00718 981.457 12.0672C986.517 16.9072 989.047 22.8472 989.047 29.8872C989.047 37.1472 986.517 43.3072 981.457 48.3672C976.617 53.2072 970.677 55.6272 963.637 55.6272ZM942.187 73.1172H985.087V238.117H942.187V73.1172ZM1158.87 151.327C1158.87 124.487 1152.27 104.357 1139.07 90.9372C1125.87 77.2972 1108.27 70.4772 1086.27 70.4772C1064.27 70.4772 1046.67 77.2972 1033.47 90.9372C1020.27 104.357 1013.67 124.487 1013.67 151.327V238.117H1056.57V151.327C1056.57 137.907 1058.88 128.117 1063.5 121.957C1068.34 115.577 1075.93 112.387 1086.27 112.387C1096.61 112.387 1104.09 115.577 1108.71 121.957C1113.55 128.117 1115.97 137.907 1115.97 151.327V238.117H1158.87V151.327ZM1263.81 304.117C1246.65 304.117 1231.03 299.387 1216.95 289.927C1202.87 280.687 1192.53 268.367 1185.93 252.967H1238.07C1242.25 256.267 1246.32 258.577 1250.28 259.897C1254.46 261.437 1258.97 262.207 1263.81 262.207C1275.25 262.207 1284.93 259.347 1292.85 253.627C1300.99 247.907 1305.06 240.097 1305.06 230.197V229.867C1292.3 237.127 1278.55 240.757 1263.81 240.757C1248.41 240.757 1234.11 237.017 1220.91 229.537C1207.93 221.837 1197.59 211.497 1189.89 198.517C1182.41 185.317 1178.67 171.017 1178.67 155.617C1178.67 140.217 1182.41 126.027 1189.89 113.047C1197.59 99.8472 1207.93 89.5072 1220.91 82.0272C1234.11 74.3272 1248.41 70.4772 1263.81 70.4772C1279.21 70.4772 1293.4 74.3272 1306.38 82.0272C1319.58 89.5072 1329.92 99.8472 1337.4 113.047C1345.1 126.027 1348.95 140.217 1348.95 155.617V218.977C1348.95 234.377 1345.1 248.567 1337.4 261.547C1329.92 274.747 1319.58 285.087 1306.38 292.567C1293.4 300.267 1279.21 304.117 1263.81 304.117ZM1264.14 198.847C1276.24 198.847 1286.25 194.777 1294.17 186.637C1302.09 178.277 1306.05 167.937 1306.05 155.617C1306.05 143.297 1302.09 133.067 1294.17 124.927C1286.25 116.567 1276.24 112.387 1264.14 112.387C1252.04 112.387 1241.92 116.567 1233.78 124.927C1225.64 133.067 1221.57 143.297 1221.57 155.617C1221.57 167.937 1225.64 178.277 1233.78 186.637C1241.92 194.777 1252.04 198.847 1264.14 198.847Z" fill="#192E3F"/>
<path d="M1546.51 240.757C1531.11 240.757 1516.92 237.017 1503.94 229.537C1490.96 221.837 1480.62 211.497 1472.92 198.517C1465.22 185.317 1461.37 171.017 1461.37 155.617C1461.37 140.217 1465.22 126.027 1472.92 113.047C1480.62 99.8472 1490.96 89.5072 1503.94 82.0272C1516.92 74.3272 1531.11 70.4772 1546.51 70.4772C1561.91 70.4772 1576.1 74.3272 1589.08 82.0272C1602.06 89.5072 1612.29 99.8472 1619.77 113.047C1627.47 126.027 1631.32 140.217 1631.32 155.617V238.117H1588.42V220.627C1586 226.127 1580.72 230.857 1572.58 234.817C1564.44 238.777 1555.75 240.757 1546.51 240.757ZM1546.84 198.847C1558.94 198.847 1568.95 194.777 1576.87 186.637C1584.79 178.277 1588.75 167.937 1588.75 155.617C1588.75 143.297 1584.79 133.067 1576.87 124.927C1568.95 116.567 1558.94 112.387 1546.84 112.387C1534.74 112.387 1524.62 116.567 1516.48 124.927C1508.34 133.067 1504.27 143.297 1504.27 155.617C1504.27 167.937 1508.34 178.277 1516.48 186.637C1524.62 194.777 1534.74 198.847 1546.84 198.847ZM1821.18 155.617C1821.18 171.017 1817.33 185.317 1809.63 198.517C1802.15 211.497 1791.92 221.837 1778.94 229.537C1765.96 237.017 1751.77 240.757 1736.37 240.757C1720.97 240.757 1706.78 237.017 1693.8 229.537C1680.82 221.837 1670.48 211.497 1662.78 198.517C1655.08 185.317 1651.23 171.017 1651.23 155.617C1651.23 140.217 1655.08 126.027 1662.78 113.047C1670.48 99.8472 1680.82 89.5072 1693.8 82.0272C1706.78 74.3272 1720.97 70.4772 1736.37 70.4772C1752.43 70.4772 1766.29 74.6572 1777.95 83.0172V7.11717H1821.18V155.617ZM1736.04 112.387C1723.94 112.387 1713.93 116.567 1706.01 124.927C1698.09 133.067 1694.13 143.297 1694.13 155.617C1694.13 167.937 1698.09 178.277 1706.01 186.637C1713.93 194.777 1723.94 198.847 1736.04 198.847C1748.14 198.847 1758.26 194.777 1766.4 186.637C1774.54 178.277 1778.61 167.937 1778.61 155.617C1778.61 143.297 1774.54 133.067 1766.4 124.927C1758.26 116.567 1748.14 112.387 1736.04 112.387ZM2011.03 155.617C2011.03 171.017 2007.18 185.317 1999.48 198.517C1992 211.497 1981.77 221.837 1968.79 229.537C1955.81 237.017 1941.62 240.757 1926.22 240.757C1910.82 240.757 1896.63 237.017 1883.65 229.537C1870.67 221.837 1860.33 211.497 1852.63 198.517C1844.93 185.317 1841.08 171.017 1841.08 155.617C1841.08 140.217 1844.93 126.027 1852.63 113.047C1860.33 99.8472 1870.67 89.5072 1883.65 82.0272C1896.63 74.3272 1910.82 70.4772 1926.22 70.4772C1942.28 70.4772 1956.14 74.6572 1967.8 83.0172V7.11717H2011.03V155.617ZM1925.89 112.387C1913.79 112.387 1903.78 116.567 1895.86 124.927C1887.94 133.067 1883.98 143.297 1883.98 155.617C1883.98 167.937 1887.94 178.277 1895.86 186.637C1903.78 194.777 1913.79 198.847 1925.89 198.847C1937.99 198.847 1948.11 194.777 1956.25 186.637C1964.39 178.277 1968.46 167.937 1968.46 155.617C1968.46 143.297 1964.39 133.067 1956.25 124.927C1948.11 116.567 1937.99 112.387 1925.89 112.387ZM2116.07 240.757C2100.67 240.757 2086.48 237.017 2073.5 229.537C2060.52 221.837 2050.18 211.497 2042.48 198.517C2034.78 185.317 2030.93 171.017 2030.93 155.617C2030.93 140.217 2034.78 126.027 2042.48 113.047C2050.18 99.8472 2060.52 89.5072 2073.5 82.0272C2086.48 74.3272 2100.67 70.4772 2116.07 70.4772C2131.47 70.4772 2145.66 74.3272 2158.64 82.0272C2171.62 89.5072 2181.85 99.8472 2189.33 113.047C2197.03 126.027 2200.88 140.217 2200.88 155.617V238.117H2157.98V220.627C2155.56 226.127 2150.28 230.857 2142.14 234.817C2134 238.777 2125.31 240.757 2116.07 240.757ZM2116.4 198.847C2128.5 198.847 2138.51 194.777 2146.43 186.637C2154.35 178.277 2158.31 167.937 2158.31 155.617C2158.31 143.297 2154.35 133.067 2146.43 124.927C2138.51 116.567 2128.5 112.387 2116.4 112.387C2104.3 112.387 2094.18 116.567 2086.04 124.927C2077.9 133.067 2073.83 143.297 2073.83 155.617C2073.83 167.937 2077.9 178.277 2086.04 186.637C2094.18 194.777 2104.3 198.847 2116.4 198.847Z" fill="#E50914"/>
<path d="M142.842 291.4C117.176 291.4 93.3424 285.167 71.3424 272.7C49.7091 259.867 32.4757 242.633 19.6424 221C7.17572 199 0.942383 175.167 0.942383 149.5C0.942383 123.833 7.17572 100.183 19.6424 78.55C32.4757 56.55 49.7091 39.3167 71.3424 26.85C93.3424 14.0167 117.176 7.59999 142.842 7.59999C175.109 7.59999 203.709 17.3167 228.642 36.75C253.942 55.8167 270.809 80.3833 279.242 110.45H203.342C197.109 100.183 188.676 92.1167 178.042 86.25C167.776 80.3833 156.226 77.45 143.392 77.45C123.226 77.45 106.359 84.4167 92.7924 98.35C79.2257 111.917 72.4424 128.967 72.4424 149.5C72.4424 170.033 79.2257 187.267 92.7924 201.2C106.359 214.767 123.226 221.55 143.392 221.55C155.492 221.55 166.492 218.983 176.392 213.85C186.292 208.35 194.542 200.833 201.142 191.3H278.692C269.892 220.633 253.026 244.65 228.092 263.35C203.159 282.05 174.742 291.4 142.842 291.4Z" fill="#192E3F"/>
<path d="M139.159 245.12C120.959 245.12 104.189 240.7 88.8491 231.86C73.5091 222.76 61.2891 210.54 52.1891 195.2C43.0891 179.6 38.5391 162.7 38.5391 144.5C38.5391 126.3 43.0891 109.53 52.1891 94.19C61.2891 78.59 73.5091 66.37 88.8491 57.53C104.189 48.43 120.959 43.88 139.159 43.88C157.359 43.88 174.129 48.43 189.469 57.53C204.809 66.37 216.899 78.59 225.739 94.19C234.839 109.53 239.389 126.3 239.389 144.5V242H188.689V221.33C185.829 227.83 179.589 233.42 169.969 238.1C160.349 242.78 150.079 245.12 139.159 245.12ZM139.549 195.59C153.849 195.59 165.679 190.78 175.039 181.16C184.399 171.28 189.079 159.06 189.079 144.5C189.079 129.94 184.399 117.85 175.039 108.23C165.679 98.35 153.849 93.41 139.549 93.41C125.249 93.41 113.289 98.35 103.669 108.23C94.0491 117.85 89.2391 129.94 89.2391 144.5C89.2391 159.06 94.0491 171.28 103.669 181.16C113.289 190.78 125.249 195.59 139.549 195.59Z" fill="#E50914"/>
<path d="M933.497 28.8259L936.918 48.5312C938.346 56.7591 953.511 58.9367 967.086 56.775C980.661 54.6133 994.275 47.853 992.847 39.625L989.426 19.9198C989.188 18.5482 987.867 17.5584 986.443 17.7852L935.598 25.8817C934.174 26.1084 933.259 27.4543 933.497 28.8259Z" fill="#192E3F"/>
<path d="M933.496 28.8255L936.917 48.5307C938.346 56.7587 953.511 58.9363 967.086 56.7746L961.02 21.833L935.598 25.8812C934.174 26.108 933.258 27.4538 933.496 28.8255Z" fill="#192E3F"/>
<path d="M917.086 25.5933C917.271 26.6599 918.099 27.5196 919.128 27.7209L962.618 36.453C962.94 36.5063 963.254 36.5086 963.559 36.46C963.865 36.4114 964.161 36.312 964.448 36.1616L1002.65 14.4212L1001.82 9.64712L958.329 0.914979C958.007 0.862383 957.693 0.860031 957.387 0.908637C957.082 0.957243 956.786 1.05664 956.499 1.20634L918.299 22.9468C917.394 23.4566 916.901 24.5268 917.086 25.5933Z" fill="#192E3F"/>
<path d="M917.087 25.5934C917.272 26.6599 918.1 27.5197 919.128 27.7209L962.619 36.4531C962.931 36.5063 963.249 36.5087 963.56 36.4601L957.388 0.908691C957.083 0.95727 956.787 1.05669 956.5 1.2064L918.3 22.9469C917.395 23.4567 916.902 24.5268 917.087 25.5934Z" fill="#192E3F"/>
<path d="M957.931 19.09C958.178 20.5117 959.49 21.4513 960.914 21.2246L999.217 15.1252L1005.76 52.8094L1003.4 68.4248C1003.17 69.8177 1004.14 71.1777 1005.53 71.3734C1006.99 71.6123 1008.29 70.6741 1008.46 69.2887L1008.54 68.8081C1008.95 69.9943 1010.19 70.7893 1011.46 70.5869C1012.88 70.3601 1013.81 69.0644 1013.56 67.6426L1003.86 11.7762C1003.61 10.3538 1002.3 9.41488 1000.88 9.64164L960.033 16.1458C958.609 16.3726 957.684 17.6676 957.931 19.09Z" fill="#192E3F"/>
</svg>
